<svg width="656" height="189" viewBox="0 0 656 189" fill="none" xmlns="http://www.w3.org/2000/svg">
<path d="M100.946 50.4V63H113.564V75.6H126.182V163.8H113.564V176.4H100.946V189H50.4729V176.4H37.8547V163.8H25.2365V189H0V0H25.2365V75.6H37.8547V63H50.4729V50.4H100.946ZM100.946 151.2V88.2H88.3276V75.6H50.4729V88.2H37.8547V100.8H25.2365V138.6H37.8547V151.2H50.4729V163.8H88.3276V151.2H100.946Z" fill="#3300FF"/>
<path d="M252.266 163.8V176.4H239.648V189H176.557V176.4H163.938V163.8H151.32V75.6H163.938V63H176.557V50.4H239.648V63H252.266V75.6H264.884V126H176.557V151.2H189.175V163.8H227.03V151.2H239.648V138.6H264.884V163.8H252.266ZM189.175 75.6V88.2H176.557V100.8H239.648V88.2H227.03V75.6H189.175Z" fill="#3300FF"/>
<path d="M391.017 50.4V63H403.635V88.2H416.254V189H391.017V100.8H378.399V75.6H327.926V63H340.544V50.4H391.017ZM290.071 50.4H315.308V75.6H327.926V88.2H315.308V189H290.071V50.4Z" fill="#3300FF"/>
<path d="M428.773 75.6V50.4H454.01V12.6H479.246V50.4H517.101V75.6H479.246V163.8H517.101V189H466.628V176.4H454.01V75.6H428.773Z" fill="#3300FF"/>
<path d="M643.382 163.8V176.4H630.764V189H567.672V176.4H555.054V163.8H542.436V75.6H555.054V63H567.672V50.4H630.764V63H643.382V75.6H656V163.8H643.382ZM580.291 163.8H618.145V151.2H630.764V88.2H618.145V75.6H580.291V88.2H567.672V151.2H580.291V163.8Z" fill="#3300FF"/>
</svg>
