<svg width="2391" height="2275" viewBox="0 0 2391 2275" fill="none" xmlns="http://www.w3.org/2000/svg">
<path d="M2338.9 105.152H169.559V2274.49H2338.9V105.152Z" fill="#0000FF"/>
<path d="M1009.02 300.824H358.787V1065.14H1009.02V300.824Z" fill="white"/>
<path d="M2149.67 300.824H1198.08V1065.14H2149.67V300.824Z" fill="white"/>
<path d="M2149.67 1274.49H358.786V2078.82H2149.67V1274.49Z" fill="white"/>
<path fill-rule="evenodd" clip-rule="evenodd" d="M1795.02 186.324C1795.02 129.021 1841.54 82.4966 1898.85 82.4966C1956.15 82.4966 2002.68 129.021 2002.68 186.324C2031.33 136.698 2094.88 119.669 2144.51 148.321C2194.13 176.973 2211.16 240.526 2182.51 290.153C2232.14 261.5 2295.69 278.529 2324.34 328.157C2353 377.783 2335.97 441.336 2286.34 469.988C2343.64 469.988 2390.17 516.512 2390.17 573.817C2390.17 631.121 2343.64 677.644 2286.34 677.644C2335.97 706.296 2353 769.849 2324.34 819.476C2295.69 869.103 2232.14 886.132 2182.51 857.48C2211.16 907.107 2194.13 970.659 2144.51 999.311C2094.88 1027.96 2031.33 1010.93 2002.68 961.308C2002.68 1018.61 1956.15 1065.14 1898.85 1065.14C1841.54 1065.14 1795.02 1018.61 1795.02 961.308C1766.37 1010.93 1702.81 1027.96 1653.19 999.311C1603.56 970.659 1586.53 907.107 1615.18 857.48C1565.56 886.132 1502 869.103 1473.35 819.476C1444.7 769.849 1461.73 706.296 1511.36 677.644C1454.05 677.644 1407.53 631.121 1407.53 573.817C1407.53 516.512 1454.05 469.988 1511.36 469.988C1461.73 441.336 1444.7 377.783 1473.35 328.157C1502 278.529 1565.56 261.5 1615.18 290.153C1586.53 240.526 1603.56 176.973 1653.19 148.321C1702.81 119.669 1766.37 136.698 1795.02 186.324Z" fill="white"/>
<path fill-rule="evenodd" clip-rule="evenodd" d="M1795.02 186.324C1795.02 129.021 1841.54 82.4966 1898.85 82.4966C1956.15 82.4966 2002.68 129.021 2002.68 186.324C2031.33 136.698 2094.88 119.669 2144.51 148.321C2194.13 176.973 2211.16 240.526 2182.51 290.153C2232.14 261.5 2295.69 278.529 2324.34 328.157C2353 377.783 2335.97 441.336 2286.34 469.988C2343.64 469.988 2390.17 516.512 2390.17 573.817C2390.17 631.121 2343.64 677.644 2286.34 677.644C2335.97 706.296 2353 769.849 2324.34 819.476C2295.69 869.103 2232.14 886.132 2182.51 857.48C2211.16 907.107 2194.13 970.659 2144.51 999.311C2094.88 1027.96 2031.33 1010.93 2002.68 961.308C2002.68 1018.61 1956.15 1065.14 1898.85 1065.14C1841.54 1065.14 1795.02 1018.61 1795.02 961.308C1766.37 1010.93 1702.81 1027.96 1653.19 999.311C1603.56 970.659 1586.53 907.107 1615.18 857.48C1565.56 886.132 1502 869.103 1473.35 819.476C1444.7 769.849 1461.73 706.296 1511.36 677.644C1454.05 677.644 1407.53 631.121 1407.53 573.817C1407.53 516.512 1454.05 469.988 1511.36 469.988C1461.73 441.336 1444.7 377.783 1473.35 328.157C1502 278.529 1565.56 261.5 1615.18 290.153C1586.53 240.526 1603.56 176.973 1653.19 148.321C1702.81 119.669 1766.37 136.698 1795.02 186.324ZM1758.93 207.159C1741.78 177.447 1703.73 167.252 1674.02 184.406C1644.31 201.56 1634.11 239.608 1651.27 269.319L1594.35 326.237C1564.64 309.083 1526.59 319.279 1509.44 348.99C1492.28 378.702 1502.48 416.75 1532.19 433.904L1511.36 511.655C1477.05 511.655 1449.19 539.509 1449.19 573.817C1449.19 608.124 1477.05 635.977 1511.36 635.977L1532.19 713.728C1502.48 730.882 1492.28 768.932 1509.44 798.643C1526.59 828.355 1564.64 838.549 1594.35 821.395L1651.27 878.313C1634.11 908.024 1644.31 946.074 1674.02 963.227C1703.73 980.381 1741.78 970.186 1758.93 940.475L1836.69 961.308C1836.69 995.616 1864.54 1023.47 1898.85 1023.47C1933.16 1023.47 1961.01 995.616 1961.01 961.308L2038.76 940.475C2055.91 970.186 2093.96 980.381 2123.67 963.227C2153.39 946.074 2163.58 908.024 2146.43 878.313L2203.34 821.395C2233.06 838.549 2271.1 828.355 2288.26 798.643C2305.41 768.932 2295.22 730.882 2265.51 713.728L2286.34 635.977C2320.65 635.977 2348.5 608.124 2348.5 573.817C2348.5 539.509 2320.65 511.655 2286.34 511.655L2265.51 433.904C2295.22 416.75 2305.41 378.702 2288.26 348.99C2271.1 319.279 2233.06 309.083 2203.34 326.237L2146.43 269.319C2163.58 239.608 2153.39 201.56 2123.67 184.406C2093.96 167.252 2055.91 177.447 2038.76 207.159L1961.01 186.324C1961.01 152.017 1933.16 124.164 1898.85 124.164C1864.54 124.164 1836.69 152.017 1836.69 186.324L1758.93 207.159Z" fill="#0000FF"/>
<path fill-rule="evenodd" clip-rule="evenodd" d="M2029.98 598.059C2029.98 521.377 1967.82 459.214 1891.13 459.214C1822.97 459.214 1767.72 514.471 1767.72 582.632C1767.72 641.056 1815.08 688.418 1873.5 688.418C1922.19 688.418 1961.66 648.95 1961.66 600.263C1961.66 561.314 1930.08 529.739 1891.13 529.739C1861.92 529.739 1838.24 553.42 1838.24 582.632C1838.24 602.106 1854.03 617.894 1873.5 617.894C1883.24 617.894 1891.13 610 1891.13 600.263" fill="white"/>
<path d="M2029.98 598.059C2029.98 521.377 1967.82 459.214 1891.13 459.214C1822.97 459.214 1767.72 514.471 1767.72 582.632C1767.72 641.056 1815.08 688.418 1873.5 688.418C1922.19 688.418 1961.66 648.95 1961.66 600.263C1961.66 561.314 1930.08 529.739 1891.13 529.739C1861.92 529.739 1838.24 553.42 1838.24 582.632C1838.24 602.106 1854.03 617.894 1873.5 617.894C1883.24 617.894 1891.13 610 1891.13 600.263" stroke="#0000FF" stroke-width="41.6694" stroke-miterlimit="1"/>
<path fill-rule="evenodd" clip-rule="evenodd" d="M1641.72 208.98C1641.72 151.676 1688.25 105.152 1745.55 105.152C1802.85 105.152 1849.38 151.676 1849.38 208.98C1878.03 159.353 1941.58 142.324 1991.21 170.976C2040.84 199.628 2057.86 263.181 2029.21 312.809C2078.84 284.155 2142.39 301.184 2171.04 350.812C2199.7 400.438 2182.67 463.991 2133.04 492.643C2190.35 492.643 2236.87 539.167 2236.87 596.472C2236.87 653.776 2190.35 700.3 2133.04 700.3C2182.67 728.952 2199.7 792.504 2171.04 842.131C2142.39 891.758 2078.84 908.787 2029.21 880.135C2057.86 929.762 2040.84 993.315 1991.21 1021.97C1941.58 1050.62 1878.03 1033.59 1849.38 983.963C1849.38 1041.27 1802.85 1087.79 1745.55 1087.79C1688.25 1087.79 1641.72 1041.27 1641.72 983.963C1613.07 1033.59 1549.52 1050.62 1499.89 1021.97C1450.26 993.315 1433.23 929.762 1461.89 880.135C1412.26 908.787 1348.71 891.758 1320.05 842.131C1291.4 792.504 1308.43 728.952 1358.06 700.3C1300.75 700.3 1254.23 653.776 1254.23 596.472C1254.23 539.167 1300.75 492.643 1358.06 492.643C1308.43 463.991 1291.4 400.438 1320.05 350.812C1348.71 301.184 1412.26 284.155 1461.89 312.809C1433.23 263.181 1450.26 199.628 1499.89 170.976C1549.52 142.324 1613.07 159.353 1641.72 208.98Z" fill="white"/>
<path fill-rule="evenodd" clip-rule="evenodd" d="M1641.72 208.98C1641.72 151.676 1688.25 105.152 1745.55 105.152C1802.85 105.152 1849.38 151.676 1849.38 208.98C1878.03 159.353 1941.58 142.324 1991.21 170.976C2040.84 199.628 2057.86 263.181 2029.21 312.809C2078.84 284.155 2142.39 301.184 2171.04 350.812C2199.7 400.438 2182.67 463.991 2133.04 492.643C2190.35 492.643 2236.87 539.167 2236.87 596.472C2236.87 653.776 2190.35 700.3 2133.04 700.3C2182.67 728.952 2199.7 792.504 2171.04 842.131C2142.39 891.758 2078.84 908.787 2029.21 880.135C2057.86 929.762 2040.84 993.315 1991.21 1021.97C1941.58 1050.62 1878.03 1033.59 1849.38 983.963C1849.38 1041.27 1802.85 1087.79 1745.55 1087.79C1688.25 1087.79 1641.72 1041.27 1641.72 983.963C1613.07 1033.59 1549.52 1050.62 1499.89 1021.97C1450.26 993.315 1433.23 929.762 1461.89 880.135C1412.26 908.787 1348.71 891.758 1320.05 842.131C1291.4 792.504 1308.43 728.952 1358.06 700.3C1300.75 700.3 1254.23 653.776 1254.23 596.472C1254.23 539.167 1300.75 492.643 1358.06 492.643C1308.43 463.991 1291.4 400.438 1320.05 350.812C1348.71 301.184 1412.26 284.155 1461.89 312.809C1433.23 263.181 1450.26 199.628 1499.89 170.976C1549.52 142.324 1613.07 159.353 1641.72 208.98ZM1605.64 229.814C1588.48 200.102 1550.43 189.907 1520.72 207.061C1491.01 224.215 1480.82 262.263 1497.97 291.974L1441.05 348.892C1411.34 331.738 1373.29 341.934 1356.14 371.645C1338.98 401.357 1349.18 439.405 1378.89 456.559L1358.06 534.31C1323.75 534.31 1295.9 562.164 1295.9 596.472C1295.9 630.78 1323.75 658.632 1358.06 658.632L1378.89 736.383C1349.18 753.537 1338.98 791.587 1356.14 821.298C1373.29 851.01 1411.34 861.204 1441.05 844.05L1497.97 900.969C1480.82 930.68 1491.01 968.729 1520.72 985.883C1550.43 1003.04 1588.48 992.841 1605.64 963.13L1683.39 983.963C1683.39 1018.27 1711.24 1046.12 1745.55 1046.12C1779.86 1046.12 1807.71 1018.27 1807.71 983.963L1885.46 963.13C1902.62 992.841 1940.66 1003.04 1970.38 985.883C2000.09 968.729 2010.28 930.68 1993.13 900.969L2050.05 844.05C2079.76 861.204 2117.81 851.01 2134.96 821.298C2152.11 791.587 2141.92 753.537 2112.21 736.383L2133.04 658.632C2167.35 658.632 2195.2 630.78 2195.2 596.472C2195.2 562.164 2167.35 534.31 2133.04 534.31L2112.21 456.559C2141.92 439.405 2152.11 401.357 2134.96 371.645C2117.81 341.934 2079.76 331.738 2050.05 348.892L1993.13 291.974C2010.28 262.263 2000.09 224.215 1970.38 207.061C1940.66 189.907 1902.62 200.102 1885.46 229.814L1807.71 208.98C1807.71 174.672 1779.86 146.819 1745.55 146.819C1711.24 146.819 1683.39 174.672 1683.39 208.98L1605.64 229.814Z" fill="#0000FF"/>
<path fill-rule="evenodd" clip-rule="evenodd" d="M1876.68 620.714C1876.68 544.033 1814.52 481.87 1737.84 481.87C1669.67 481.87 1614.42 537.126 1614.42 605.287C1614.42 663.712 1661.78 711.073 1720.21 711.073C1768.89 711.073 1808.36 671.605 1808.36 622.918C1808.36 583.969 1776.79 552.394 1737.84 552.394C1708.62 552.394 1684.94 576.075 1684.94 605.287C1684.94 624.762 1700.73 640.549 1720.21 640.549C1729.94 640.549 1737.84 632.656 1737.84 622.918" fill="white"/>
<path d="M1876.68 620.714C1876.68 544.033 1814.52 481.87 1737.84 481.87C1669.67 481.87 1614.42 537.126 1614.42 605.287C1614.42 663.712 1661.78 711.073 1720.21 711.073C1768.89 711.073 1808.36 671.605 1808.36 622.918C1808.36 583.969 1776.79 552.394 1737.84 552.394C1708.62 552.394 1684.94 576.075 1684.94 605.287C1684.94 624.762 1700.73 640.549 1720.21 640.549C1729.94 640.549 1737.84 632.656 1737.84 622.918" stroke="#0000FF" stroke-width="41.6694" stroke-miterlimit="1"/>
<path fill-rule="evenodd" clip-rule="evenodd" d="M442.695 1178.24C587.114 1110.18 1216.26 1508.94 1197.68 1656.75C1179.09 1804.56 456.998 2144.86 331.169 2065.1C205.338 1985.35 298.278 1246.3 442.695 1178.24Z" fill="white" stroke="#0000FF" stroke-width="41.0877" stroke-miterlimit="1.5" stroke-linecap="round" stroke-linejoin="round"/>
<path fill-rule="evenodd" clip-rule="evenodd" d="M610.013 2026.69L482.5 1756.11L863.037 1576.78L990.55 1847.35C877.235 1915.82 734.945 1982.87 610.013 2026.69Z" fill="#0000FF"/>
<path fill-rule="evenodd" clip-rule="evenodd" d="M791.509 1178.24C935.928 1110.18 1565.08 1508.94 1546.49 1656.75C1527.9 1804.56 805.812 2144.86 679.983 2065.1C554.152 1985.35 647.092 1246.3 791.509 1178.24Z" fill="white" stroke="#0000FF" stroke-width="41.0877" stroke-miterlimit="1.5" stroke-linecap="round" stroke-linejoin="round"/>
<path fill-rule="evenodd" clip-rule="evenodd" d="M958.827 2026.69L831.314 1756.11L1211.85 1576.78L1339.36 1847.35C1226.05 1915.82 1083.76 1982.87 958.827 2026.69Z" fill="#0000FF"/>
<path fill-rule="evenodd" clip-rule="evenodd" d="M1140.32 1178.24C1284.74 1110.18 1913.89 1508.94 1895.3 1656.75C1876.71 1804.56 1154.63 2144.86 1028.8 2065.1C902.966 1985.35 995.906 1246.3 1140.32 1178.24Z" fill="white" stroke="#0000FF" stroke-width="41.0877" stroke-miterlimit="1.5" stroke-linecap="round" stroke-linejoin="round"/>
<path fill-rule="evenodd" clip-rule="evenodd" d="M1307.64 2026.69L1180.13 1756.11L1560.67 1576.78L1688.18 1847.35C1574.86 1915.82 1432.57 1982.87 1307.64 2026.69Z" fill="#0000FF"/>
<path fill-rule="evenodd" clip-rule="evenodd" d="M1489.14 1178.24C1633.56 1110.18 2262.71 1508.94 2244.12 1656.75C2225.53 1804.56 1503.44 2144.86 1377.61 2065.1C1251.78 1985.35 1344.72 1246.3 1489.14 1178.24Z" fill="white" stroke="#0000FF" stroke-width="41.0877" stroke-miterlimit="1.5" stroke-linecap="round" stroke-linejoin="round"/>
<path fill-rule="evenodd" clip-rule="evenodd" d="M1656.46 2026.69L1528.94 1756.11L1909.48 1576.78L2036.99 1847.35C1923.68 1915.82 1781.39 1982.87 1656.46 2026.69Z" fill="#0000FF"/>
<path d="M2338.9 1170.49H2149.67V1894.81H2338.9V1170.49Z" fill="#0000FF"/>
<path d="M687.82 580.949C869.541 580.949 1016.85 455.533 1016.85 300.825C1016.85 146.116 869.541 20.7007 687.82 20.7007C506.1 20.7007 358.786 146.116 358.786 300.825C358.786 455.533 506.1 580.949 687.82 580.949Z" fill="white" stroke="#0000FF" stroke-width="41.4015" stroke-miterlimit="1.5" stroke-linecap="round" stroke-linejoin="round"/>
<path d="M687.82 423.466C767.38 423.466 831.875 368.557 831.875 300.824C831.875 233.091 767.38 178.183 687.82 178.183C608.261 178.183 543.766 233.091 543.766 300.824C543.766 368.557 608.261 423.466 687.82 423.466Z" fill="#0000FF"/>
<path d="M687.82 810.949C869.541 810.949 1016.85 685.533 1016.85 530.825C1016.85 376.116 869.541 250.701 687.82 250.701C506.1 250.701 358.786 376.116 358.786 530.825C358.786 685.533 506.1 810.949 687.82 810.949Z" fill="white" stroke="#0000FF" stroke-width="41.4015" stroke-miterlimit="1.5" stroke-linecap="round" stroke-linejoin="round"/>
<path d="M687.82 653.466C767.38 653.466 831.875 598.557 831.875 530.824C831.875 463.091 767.38 408.183 687.82 408.183C608.261 408.183 543.766 463.091 543.766 530.824C543.766 598.557 608.261 653.466 687.82 653.466Z" fill="#0000FF"/>
<path d="M687.82 1040.95C869.541 1040.95 1016.85 915.533 1016.85 760.825C1016.85 606.116 869.541 480.701 687.82 480.701C506.1 480.701 358.786 606.116 358.786 760.825C358.786 915.533 506.1 1040.95 687.82 1040.95Z" fill="white" stroke="#0000FF" stroke-width="41.4015" stroke-miterlimit="1.5" stroke-linecap="round" stroke-linejoin="round"/>
<path d="M687.82 883.466C767.38 883.466 831.875 828.557 831.875 760.824C831.875 693.091 767.38 638.183 687.82 638.183C608.261 638.183 543.766 693.091 543.766 760.824C543.766 828.557 608.261 883.466 687.82 883.466Z" fill="#0000FF"/>
</svg>
